<svg xmlns="http://www.w3.org/2000/svg" width="127" height="62" viewBox="0 0 127 62">
  <g fill="none" fill-rule="evenodd">
    <rect width="127" height="62" fill="#FFFFFF"/>
    <rect width="124" height="59" x="1.5" y="1.5" stroke="#000000"/>
    <path fill="#000000" d="M52.59,16 L55.13,8.86 L54.14,8.86 L52.08,15.05 L52.06,15.05 L50.02,8.86 L49,8.86 L51.51,16 L52.59,16 Z M56.65,9.9 L56.65,8.86 L55.8,8.86 L55.8,9.9 L56.65,9.9 Z M55.8,10.83 L55.8,16 L56.65,16 L56.65,10.83 L55.8,10.83 Z M58.59,13.42 C58.59,13.7333349 58.6316663,14.0116655 58.715,14.255 C58.7983337,14.4983346 58.9133326,14.7016659 59.06,14.865 C59.2066674,15.0283341 59.3783324,15.1533329 59.575,15.24 C59.7716676,15.3266671 59.9799989,15.37 60.2,15.37 C60.4200011,15.37 60.6283324,15.3266671 60.825,15.24 C61.0216676,15.1533329 61.1933326,15.0283341 61.34,14.865 C61.4866674,14.7016659 61.6016663,14.4983346 61.685,14.255 C61.7683337,14.0116655 61.81,13.7333349 61.81,13.42 C61.81,13.1066651 61.7683337,12.8283346 61.685,12.585 C61.6016663,12.3416655 61.4866674,12.1366675 61.34,11.97 C61.1933326,11.8033325 61.0216676,11.6766671 60.825,11.59 C60.6283324,11.5033329 60.4200011,11.46 60.2,11.46 C59.9799989,11.46 59.7716676,11.5033329 59.575,11.59 C59.3783324,11.6766671 59.2066674,11.8033325 59.06,11.97 C58.9133326,12.1366675 58.7983337,12.3416655 58.715,12.585 C58.6316663,12.8283346 58.59,13.1066651 58.59,13.42 Z M57.69,13.42 C57.69,13.0399981 57.7433328,12.6850017 57.85,12.355 C57.9566672,12.0249983 58.1166656,11.7383345 58.33,11.495 C58.5433344,11.2516654 58.8066651,11.0600007 59.12,10.92 C59.4333349,10.7799993 59.7933313,10.71 60.2,10.71 C60.6133354,10.71 60.9749985,10.7799993 61.285,10.92 C61.5950015,11.0600007 61.8566656,11.2516654 62.07,11.495 C62.2833344,11.7383345 62.4433328,12.0249983 62.55,12.355 C62.6566672,12.6850017 62.71,13.0399981 62.71,13.42 C62.71,13.8000019 62.6566672,14.1533317 62.55,14.48 C62.4433328,14.8066683 62.2833344,15.0916655 62.07,15.335 C61.8566656,15.5783346 61.5950015,15.7683327 61.285,15.905 C60.9749985,16.0416674 60.6133354,16.11 60.2,16.11 C59.7933313,16.11 59.4333349,16.0416674 59.12,15.905 C58.8066651,15.7683327 58.5433344,15.5783346 58.33,15.335 C58.1166656,15.0916655 57.9566672,14.8066683 57.85,14.48 C57.7433328,14.1533317 57.69,13.8000019 57.69,13.42 Z M63.76,8.86 L63.76,16 L64.61,16 L64.61,8.86 L63.76,8.86 Z M69.52,12.92 C69.5066666,12.719999 69.4616671,12.5300009 69.385,12.35 C69.3083329,12.1699991 69.2050007,12.0150006 69.075,11.885 C68.9449994,11.7549993 68.7916675,11.651667 68.615,11.575 C68.4383324,11.498333 68.2433344,11.46 68.03,11.46 C67.8099989,11.46 67.6116675,11.498333 67.435,11.575 C67.2583324,11.651667 67.1066673,11.756666 66.98,11.89 C66.8533327,12.023334 66.7533337,12.1783324 66.68,12.355 C66.6066663,12.5316676 66.5633334,12.719999 66.55,12.92 L69.52,12.92 Z M70.34,14.36 C70.2266661,14.9400029 69.9766686,15.3766652 69.59,15.67 C69.2033314,15.9633348 68.7166696,16.11 68.13,16.11 C67.7166646,16.11 67.3583349,16.043334 67.055,15.91 C66.7516651,15.776666 66.4966677,15.5900012 66.29,15.35 C66.0833323,15.1099988 65.9283339,14.823335 65.825,14.49 C65.7216662,14.156665 65.6633334,13.7933353 65.65,13.4 C65.65,13.0066647 65.7099994,12.6466683 65.83,12.32 C65.9500006,11.9933317 66.1183322,11.7100012 66.335,11.47 C66.5516678,11.2299988 66.8083319,11.043334 67.105,10.91 C67.4016682,10.776666 67.7266649,10.71 68.08,10.71 C68.5400023,10.71 68.9216651,10.804999 69.225,10.995 C69.5283348,11.185001 69.7716657,11.4266652 69.955,11.72 C70.1383342,12.0133348 70.2649996,12.3333316 70.335,12.68 C70.4050003,13.0266684 70.4333334,13.3566651 70.42,13.67 L66.55,13.67 C66.5433333,13.8966678 66.5699997,14.1116656 66.63,14.315 C66.6900003,14.5183344 66.786666,14.6983326 66.92,14.855 C67.053334,15.0116675 67.2233323,15.1366662 67.43,15.23 C67.6366677,15.3233338 67.8799986,15.37 68.16,15.37 C68.5200018,15.37 68.8149988,15.2866675 69.045,15.12 C69.2750012,14.9533325 69.4266663,14.7000017 69.5,14.36 L70.34,14.36 Z M71.3,10.83 L71.3,16 L72.15,16 L72.15,13.08 C72.15,12.8466655 72.1816664,12.6316677 72.245,12.435 C72.3083337,12.2383324 72.4033327,12.0666674 72.53,11.92 C72.6566673,11.7733326 72.814999,11.6600004 73.005,11.58 C73.195001,11.4999996 73.4199987,11.46 73.68,11.46 C74.0066683,11.46 74.2633324,11.5533324 74.45,11.74 C74.6366676,11.9266676 74.73,12.1799984 74.73,12.5 L74.73,16 L75.58,16 L75.58,12.6 C75.58,12.3199986 75.5516669,12.0650012 75.495,11.835 C75.438333,11.6049989 75.3400007,11.4066675 75.2,11.24 C75.0599993,11.0733325 74.8766678,10.9433338 74.65,10.85 C74.4233322,10.7566662 74.1400017,10.71 73.8,10.71 C73.0333295,10.71 72.4733351,11.0233302 72.12,11.65 L72.1,11.65 L72.1,10.83 L71.3,10.83 Z M80.37,12.49 L81.25,12.49 C81.2166665,12.1833318 81.1366673,11.9183345 81.01,11.695 C80.8833327,11.4716655 80.7216677,11.2866674 80.525,11.14 C80.3283323,10.9933326 80.101668,10.8850003 79.845,10.815 C79.588332,10.7449997 79.3133348,10.71 79.02,10.71 C78.6133313,10.71 78.2566682,10.781666 77.95,10.925 C77.6433318,11.0683341 77.3883343,11.2649988 77.185,11.515 C76.9816656,11.7650013 76.8300005,12.0583316 76.73,12.395 C76.6299995,12.7316683 76.58,13.0933314 76.58,13.48 C76.58,13.8666686 76.6316662,14.221665 76.735,14.545 C76.8383338,14.868335 76.9916657,15.1466655 77.195,15.38 C77.3983343,15.6133345 77.6516651,15.7933327 77.955,15.92 C78.2583348,16.0466673 78.6066647,16.11 79,16.11 C79.6600033,16.11 80.1816647,15.9366684 80.565,15.59 C80.9483352,15.2433316 81.1866662,14.7500032 81.28,14.11 L80.41,14.11 C80.3566664,14.510002 80.2116678,14.8199989 79.975,15.04 C79.7383321,15.2600011 79.4100021,15.37 78.99,15.37 C78.723332,15.37 78.4933343,15.3166672 78.3,15.21 C78.1066657,15.1033328 77.9500006,14.9616676 77.83,14.785 C77.7099994,14.6083324 77.6216669,14.4066678 77.565,14.18 C77.5083331,13.9533322 77.48,13.7200012 77.48,13.48 C77.48,13.2199987 77.5066664,12.9683346 77.56,12.725 C77.6133336,12.4816655 77.7016661,12.2666676 77.825,12.08 C77.948334,11.8933324 78.1133323,11.7433339 78.32,11.63 C78.5266677,11.5166661 78.7833318,11.46 79.09,11.46 C79.4500018,11.46 79.7366656,11.5499991 79.95,11.73 C80.1633344,11.9100009 80.303333,12.1633317 80.37,12.49 Z M85.82,12.92 C85.8066666,12.719999 85.761667,12.5300009 85.685,12.35 C85.6083329,12.1699991 85.5050006,12.0150006 85.375,11.885 C85.2449994,11.7549993 85.0916675,11.651667 84.915,11.575 C84.7383325,11.498333 84.5433344,11.46 84.33,11.46 C84.1099989,11.46 83.9116676,11.498333 83.735,11.575 C83.5583324,11.651667 83.4066673,11.756666 83.28,11.89 C83.1533327,12.023334 83.0533337,12.1783324 82.98,12.355 C82.9066663,12.5316676 82.8633334,12.719999 82.85,12.92 L85.82,12.92 Z M86.64,14.36 C86.5266661,14.9400029 86.2766686,15.3766652 85.89,15.67 C85.5033314,15.9633348 85.0166696,16.11 84.43,16.11 C84.0166646,16.11 83.6583348,16.043334 83.355,15.91 C83.0516651,15.776666 82.7966677,15.5900012 82.59,15.35 C82.3833323,15.1099988 82.2283338,14.823335 82.125,14.49 C82.0216661,14.156665 81.9633334,13.7933353 81.95,13.4 C81.95,13.0066647 82.0099994,12.6466683 82.13,12.32 C82.2500006,11.9933317 82.4183322,11.7100012 82.635,11.47 C82.8516677,11.2299988 83.1083318,11.043334 83.405,10.91 C83.7016681,10.776666 84.0266649,10.71 84.38,10.71 C84.8400023,10.71 85.2216651,10.804999 85.525,10.995 C85.8283349,11.185001 86.0716657,11.4266652 86.255,11.72 C86.4383342,12.0133348 86.5649996,12.3333316 86.635,12.68 C86.7050003,13.0266684 86.7333334,13.3566651 86.72,13.67 L82.85,13.67 C82.8433333,13.8966678 82.8699997,14.1116656 82.93,14.315 C82.9900003,14.5183344 83.086666,14.6983326 83.22,14.855 C83.353334,15.0116675 83.5233323,15.1366662 83.73,15.23 C83.9366677,15.3233338 84.1799986,15.37 84.46,15.37 C84.8200018,15.37 85.1149989,15.2866675 85.345,15.12 C85.5750011,14.9533325 85.7266663,14.7000017 85.8,14.36 L86.64,14.36 Z M49.8,22.86 L49.8,30 L50.7,30 L50.7,24.06 L50.72,24.06 L52.95,30 L53.76,30 L55.99,24.06 L56.01,24.06 L56.01,30 L56.91,30 L56.91,22.86 L55.61,22.86 L53.35,28.86 L51.1,22.86 L49.8,22.86 Z M59.25,23.9 L59.25,22.86 L58.4,22.86 L58.4,23.9 L59.25,23.9 Z M58.4,24.83 L58.4,30 L59.25,30 L59.25,24.83 L58.4,24.83 Z M60.62,22.86 L60.62,30 L61.47,30 L61.47,22.86 L60.62,22.86 Z M63.41,27.46 C63.41,27.7000012 63.4416664,27.9349988 63.505,28.165 C63.5683336,28.3950011 63.6649994,28.5999991 63.795,28.78 C63.9250007,28.9600009 64.0916657,29.1033328 64.295,29.21 C64.4983343,29.3166672 64.7366653,29.37 65.01,29.37 C65.2966681,29.37 65.539999,29.3133339 65.74,29.2 C65.940001,29.0866661 66.1033327,28.9383343 66.23,28.755 C66.3566673,28.5716658 66.4483331,28.3633345 66.505,28.13 C66.561667,27.8966655 66.59,27.6600012 66.59,27.42 C66.59,27.1666654 66.5600003,26.9216678 66.5,26.685 C66.4399997,26.4483321 66.3450007,26.2400009 66.215,26.06 C66.0849994,25.8799991 65.9166677,25.7350006 65.71,25.625 C65.5033323,25.5149994 65.2533348,25.46 64.96,25.46 C64.6733319,25.46 64.430001,25.5166661 64.23,25.63 C64.029999,25.7433339 63.8700006,25.8933324 63.75,26.08 C63.6299994,26.2666676 63.5433336,26.4799988 63.49,26.72 C63.4366664,26.9600012 63.41,27.2066654 63.41,27.46 Z M67.41,30 L66.56,30 L66.56,29.3 L66.54,29.3 C66.3999993,29.5866681 66.1800015,29.7933327 65.88,29.92 C65.5799985,30.0466673 65.2500018,30.11 64.89,30.11 C64.489998,30.11 64.1416682,30.0366674 63.845,29.89 C63.5483319,29.7433326 63.3016676,29.5466679 63.105,29.3 C62.9083324,29.0533321 62.7600005,28.7666683 62.66,28.44 C62.5599995,28.1133317 62.51,27.7666685 62.51,27.4 C62.51,27.0333315 62.5583328,26.6866683 62.655,26.36 C62.7516672,26.0333317 62.8983324,25.7483345 63.095,25.505 C63.2916677,25.2616654 63.5383319,25.0683341 63.835,24.925 C64.1316681,24.781666 64.4766647,24.71 64.87,24.71 C65.003334,24.71 65.1466659,24.7233332 65.3,24.75 C65.4533341,24.7766668 65.6066659,24.8216664 65.76,24.885 C65.9133341,24.9483337 66.0583326,25.0316661 66.195,25.135 C66.3316674,25.2383339 66.4466662,25.3666659 66.54,25.52 L66.56,25.52 L66.56,22.86 L67.41,22.86 L67.41,30 Z M71.64,22.86 L71.64,30 L76.37,30 L76.37,29.2 L72.59,29.2 L72.59,22.86 L71.64,22.86 Z M81.64,29.98 C81.4933326,30.0666671 81.2900013,30.11 81.03,30.11 C80.8099989,30.11 80.6350006,30.0483339 80.505,29.925 C80.3749993,29.8016661 80.31,29.6000014 80.31,29.32 C80.0766655,29.6000014 79.8050016,29.8016661 79.495,29.925 C79.1849984,30.0483339 78.8500018,30.11 78.49,30.11 C78.2566655,30.11 78.0350011,30.0833336 77.825,30.03 C77.614999,29.9766664 77.4333341,29.8933339 77.28,29.78 C77.1266659,29.6666661 77.0050005,29.5183342 76.915,29.335 C76.8249996,29.1516657 76.78,28.9300013 76.78,28.67 C76.78,28.3766652 76.8299995,28.1366676 76.93,27.95 C77.0300005,27.7633324 77.1616659,27.6116672 77.325,27.495 C77.4883342,27.3783327 77.674999,27.2900003 77.885,27.23 C78.0950011,27.1699997 78.3099989,27.1200002 78.53,27.08 C78.7633345,27.0333331 78.984999,26.9983335 79.195,26.975 C79.4050011,26.9516665 79.5899992,26.9183335 79.75,26.875 C79.9100008,26.8316665 80.0366662,26.7683338 80.13,26.685 C80.2233338,26.6016663 80.27,26.4800008 80.27,26.32 C80.27,26.1333324 80.2350004,25.9833339 80.165,25.87 C80.0949997,25.7566661 80.0050006,25.6700003 79.895,25.61 C79.7849995,25.5499997 79.6616674,25.5100001 79.525,25.49 C79.3883326,25.4699999 79.253334,25.46 79.12,25.46 C78.7599982,25.46 78.4600012,25.5283326 78.22,25.665 C77.9799988,25.8016674 77.8500001,26.0599981 77.83,26.44 L76.98,26.44 C76.9933334,26.1199984 77.0599994,25.8500011 77.18,25.63 C77.3000006,25.4099989 77.459999,25.2316674 77.66,25.095 C77.860001,24.9583326 78.088332,24.8600003 78.345,24.8 C78.601668,24.7399997 78.8766652,24.71 79.17,24.71 C79.4033345,24.71 79.6349989,24.7266665 79.865,24.76 C80.0950012,24.7933335 80.3033324,24.8616661 80.49,24.965 C80.6766676,25.0683339 80.8266661,25.2133324 80.94,25.4 C81.0533339,25.5866676 81.11,25.8299985 81.11,26.13 L81.11,28.79 C81.11,28.990001 81.1216666,29.1366662 81.145,29.23 C81.1683335,29.3233338 81.246666,29.37 81.38,29.37 C81.4533337,29.37 81.5399995,29.3533335 81.64,29.32 L81.64,29.98 Z M80.26,27.33 C80.1533328,27.4100004 80.0133342,27.4683331 79.84,27.505 C79.6666658,27.5416668 79.4850009,27.5716665 79.295,27.595 C79.1049991,27.6183335 78.9133343,27.6449998 78.72,27.675 C78.5266657,27.7050002 78.3533341,27.753333 78.2,27.82 C78.0466659,27.886667 77.9216672,27.9816661 77.825,28.105 C77.7283329,28.2283339 77.68,28.3966656 77.68,28.61 C77.68,28.7500007 77.7083331,28.8683329 77.765,28.965 C77.821667,29.0616671 77.8949995,29.1399997 77.985,29.2 C78.0750005,29.2600003 78.1799994,29.3033332 78.3,29.33 C78.4200006,29.3566668 78.546666,29.37 78.68,29.37 C78.9600014,29.37 79.199999,29.3316671 79.4,29.255 C79.600001,29.1783329 79.7633327,29.0816672 79.89,28.965 C80.0166673,28.8483328 80.1099997,28.7216674 80.17,28.585 C80.2300003,28.4483326 80.26,28.3200006 80.26,28.2 L80.26,27.33 Z M82.43,24.83 L82.43,30 L83.28,30 L83.28,27.08 C83.28,26.8466655 83.3116663,26.6316677 83.375,26.435 C83.4383337,26.2383324 83.5333327,26.0666674 83.66,25.92 C83.7866673,25.7733326 83.9449991,25.6600004 84.135,25.58 C84.325001,25.4999996 84.5499987,25.46 84.81,25.46 C85.1366683,25.46 85.3933324,25.5533324 85.58,25.74 C85.7666676,25.9266676 85.86,26.1799984 85.86,26.5 L85.86,30 L86.71,30 L86.71,26.6 C86.71,26.3199986 86.6816669,26.0650012 86.625,25.835 C86.5683331,25.6049989 86.4700007,25.4066675 86.33,25.24 C86.1899993,25.0733325 86.0066678,24.9433338 85.78,24.85 C85.5533322,24.7566662 85.2700017,24.71 84.93,24.71 C84.1633295,24.71 83.6033351,25.0233302 83.25,25.65 L83.23,25.65 L83.23,24.83 L82.43,24.83 Z M92.45,29.56 C92.45,30.4066709 92.2566686,31.0399979 91.87,31.46 C91.4833314,31.8800021 90.8766708,32.09 90.05,32.09 C89.8099988,32.09 89.5650012,32.0633336 89.315,32.01 C89.0649988,31.9566664 88.8383343,31.8700006 88.635,31.75 C88.4316656,31.6299994 88.263334,31.4733343 88.13,31.28 C87.996666,31.0866657 87.9233334,30.8500014 87.91,30.57 L88.76,30.57 C88.7666667,30.7233341 88.8149996,30.8533328 88.905,30.96 C88.9950004,31.0666672 89.1049993,31.153333 89.235,31.22 C89.3650006,31.286667 89.5066659,31.3349998 89.66,31.365 C89.8133341,31.3950002 89.9599993,31.41 90.1,31.41 C90.3800014,31.41 90.6166657,31.3616671 90.81,31.265 C91.0033343,31.1683328 91.1633327,31.0350008 91.29,30.865 C91.4166673,30.6949992 91.5083331,30.4900012 91.565,30.25 C91.6216669,30.0099988 91.65,29.7466681 91.65,29.46 L91.65,29.12 L91.63,29.12 C91.4833326,29.4400016 91.2616682,29.6749992 90.965,29.825 C90.6683319,29.9750007 90.353335,30.05 90.02,30.05 C89.6333314,30.05 89.2966681,29.9800007 89.01,29.84 C88.7233319,29.6999993 88.4833343,29.5116679 88.29,29.275 C88.0966657,29.0383321 87.9516671,28.7616682 87.855,28.445 C87.7583329,28.1283318 87.71,27.7933351 87.71,27.44 C87.71,27.1333318 87.7499996,26.818335 87.83,26.495 C87.9100004,26.1716651 88.0433324,25.8783346 88.23,25.615 C88.4166676,25.3516654 88.6633318,25.1350009 88.97,24.965 C89.2766682,24.7949992 89.6533311,24.71 90.1,24.71 C90.4266683,24.71 90.7266653,24.781666 91,24.925 C91.2733347,25.0683341 91.4866659,25.2833319 91.64,25.57 L91.65,25.57 L91.65,24.83 L92.45,24.83 L92.45,29.56 Z M90.07,29.31 C90.3500014,29.31 90.5883324,29.2516673 90.785,29.135 C90.9816676,29.0183327 91.1399994,28.8650009 91.26,28.675 C91.3800006,28.484999 91.468333,28.2700012 91.525,28.03 C91.5816669,27.7899988 91.61,27.5500012 91.61,27.31 C91.61,27.0833322 91.5833336,26.8600011 91.53,26.64 C91.4766664,26.4199989 91.3916673,26.2216675 91.275,26.045 C91.1583327,25.8683325 91.0066676,25.7266672 90.82,25.62 C90.6333324,25.5133328 90.406668,25.46 90.14,25.46 C89.8666653,25.46 89.6333343,25.5116661 89.44,25.615 C89.2466657,25.7183339 89.0883339,25.8566658 88.965,26.03 C88.8416661,26.2033342 88.751667,26.4033322 88.695,26.63 C88.638333,26.8566678 88.61,27.0933321 88.61,27.34 C88.61,27.5733345 88.6333331,27.8066655 88.68,28.04 C88.7266669,28.2733345 88.8066661,28.484999 88.92,28.675 C89.0333339,28.8650009 89.1833324,29.0183327 89.37,29.135 C89.5566676,29.2516673 89.7899986,29.31 90.07,29.31 Z M98.01,30 L98.01,24.83 L97.16,24.83 L97.16,27.75 C97.16,27.9833345 97.1283337,28.1983324 97.065,28.395 C97.0016664,28.5916676 96.9066673,28.7633326 96.78,28.91 C96.6533327,29.0566674 96.495001,29.1699996 96.305,29.25 C96.1149991,29.3300004 95.8900013,29.37 95.63,29.37 C95.3033317,29.37 95.0466676,29.2766676 94.86,29.09 C94.6733324,28.9033324 94.58,28.6500016 94.58,28.33 L94.58,24.83 L93.73,24.83 L93.73,28.23 C93.73,28.5100014 93.7583331,28.7649989 93.815,28.995 C93.871667,29.2250012 93.9699993,29.4233325 94.11,29.59 C94.2500007,29.7566675 94.4333322,29.8849995 94.66,29.975 C94.8866678,30.0650004 95.1699983,30.11 95.51,30.11 C95.8900019,30.11 96.2199986,30.0350008 96.5,29.885 C96.7800014,29.7349993 97.0099991,29.5000016 97.19,29.18 L97.21,29.18 L97.21,30 L98.01,30 Z M103.87,29.98 C103.723333,30.0666671 103.520001,30.11 103.26,30.11 C103.039999,30.11 102.865001,30.0483339 102.735,29.925 C102.604999,29.8016661 102.54,29.6000014 102.54,29.32 C102.306666,29.6000014 102.035002,29.8016661 101.725,29.925 C101.414998,30.0483339 101.080002,30.11 100.72,30.11 C100.486666,30.11 100.265001,30.0833336 100.055,30.03 C99.844999,29.9766664 99.6633341,29.8933339 99.51,29.78 C99.3566659,29.6666661 99.2350005,29.5183342 99.145,29.335 C99.0549996,29.1516657 99.01,28.9300013 99.01,28.67 C99.01,28.3766652 99.0599995,28.1366676 99.16,27.95 C99.2600005,27.7633324 99.3916659,27.6116672 99.555,27.495 C99.7183342,27.3783327 99.904999,27.2900003 100.115,27.23 C100.325001,27.1699997 100.539999,27.1200002 100.76,27.08 C100.993335,27.0333331 101.214999,26.9983335 101.425,26.975 C101.635001,26.9516665 101.819999,26.9183335 101.98,26.875 C102.140001,26.8316665 102.266666,26.7683338 102.36,26.685 C102.453334,26.6016663 102.5,26.4800008 102.5,26.32 C102.5,26.1333324 102.465,25.9833339 102.395,25.87 C102.325,25.7566661 102.235001,25.6700003 102.125,25.61 C102.014999,25.5499997 101.891667,25.5100001 101.755,25.49 C101.618333,25.4699999 101.483334,25.46 101.35,25.46 C100.989998,25.46 100.690001,25.5283326 100.45,25.665 C100.209999,25.8016674 100.08,26.0599981 100.06,26.44 L99.21,26.44 C99.2233334,26.1199984 99.2899994,25.8500011 99.41,25.63 C99.5300006,25.4099989 99.689999,25.2316674 99.89,25.095 C100.090001,24.9583326 100.318332,24.8600003 100.575,24.8 C100.831668,24.7399997 101.106665,24.71 101.4,24.71 C101.633335,24.71 101.864999,24.7266665 102.095,24.76 C102.325001,24.7933335 102.533332,24.8616661 102.72,24.965 C102.906668,25.0683339 103.056666,25.2133324 103.17,25.4 C103.283334,25.5866676 103.34,25.8299985 103.34,26.13 L103.34,28.79 C103.34,28.990001 103.351667,29.1366662 103.375,29.23 C103.398333,29.3233338 103.476666,29.37 103.61,29.37 C103.683334,29.37 103.77,29.3533335 103.87,29.32 L103.87,29.98 Z M102.49,27.33 C102.383333,27.4100004 102.243334,27.4683331 102.07,27.505 C101.896666,27.5416668 101.715001,27.5716665 101.525,27.595 C101.334999,27.6183335 101.143334,27.6449998 100.95,27.675 C100.756666,27.7050002 100.583334,27.753333 100.43,27.82 C100.276666,27.886667 100.151667,27.9816661 100.055,28.105 C99.9583329,28.2283339 99.91,28.3966656 99.91,28.61 C99.91,28.7500007 99.938333,28.8683329 99.995,28.965 C100.051667,29.0616671 100.125,29.1399997 100.215,29.2 C100.305,29.2600003 100.409999,29.3033332 100.53,29.33 C100.650001,29.3566668 100.776666,29.37 100.91,29.37 C101.190001,29.37 101.429999,29.3316671 101.63,29.255 C101.830001,29.1783329 101.993333,29.0816672 102.12,28.965 C102.246667,28.8483328 102.34,28.7216674 102.4,28.585 C102.46,28.4483326 102.49,28.3200006 102.49,28.2 L102.49,27.33 Z M109.12,29.56 C109.12,30.4066709 108.926669,31.0399979 108.54,31.46 C108.153331,31.8800021 107.546671,32.09 106.72,32.09 C106.479999,32.09 106.235001,32.0633336 105.985,32.01 C105.734999,31.9566664 105.508334,31.8700006 105.305,31.75 C105.101666,31.6299994 104.933334,31.4733343 104.8,31.28 C104.666666,31.0866657 104.593333,30.8500014 104.58,30.57 L105.43,30.57 C105.436667,30.7233341 105.485,30.8533328 105.575,30.96 C105.665,31.0666672 105.774999,31.153333 105.905,31.22 C106.035001,31.286667 106.176666,31.3349998 106.33,31.365 C106.483334,31.3950002 106.629999,31.41 106.77,31.41 C107.050001,31.41 107.286666,31.3616671 107.48,31.265 C107.673334,31.1683328 107.833333,31.0350008 107.96,30.865 C108.086667,30.6949992 108.178333,30.4900012 108.235,30.25 C108.291667,30.0099988 108.32,29.7466681 108.32,29.46 L108.32,29.12 L108.3,29.12 C108.153333,29.4400016 107.931668,29.6749992 107.635,29.825 C107.338332,29.9750007 107.023335,30.05 106.69,30.05 C106.303331,30.05 105.966668,29.9800007 105.68,29.84 C105.393332,29.6999993 105.153334,29.5116679 104.96,29.275 C104.766666,29.0383321 104.621667,28.7616682 104.525,28.445 C104.428333,28.1283318 104.38,27.7933351 104.38,27.44 C104.38,27.1333318 104.42,26.818335 104.5,26.495 C104.58,26.1716651 104.713332,25.8783346 104.9,25.615 C105.086668,25.3516654 105.333332,25.1350009 105.64,24.965 C105.946668,24.7949992 106.323331,24.71 106.77,24.71 C107.096668,24.71 107.396665,24.781666 107.67,24.925 C107.943335,25.0683341 108.156666,25.2833319 108.31,25.57 L108.32,25.57 L108.32,24.83 L109.12,24.83 L109.12,29.56 Z M106.74,29.31 C107.020001,29.31 107.258332,29.2516673 107.455,29.135 C107.651668,29.0183327 107.809999,28.8650009 107.93,28.675 C108.050001,28.484999 108.138333,28.2700012 108.195,28.03 C108.251667,27.7899988 108.28,27.5500012 108.28,27.31 C108.28,27.0833322 108.253334,26.8600011 108.2,26.64 C108.146666,26.4199989 108.061667,26.2216675 107.945,26.045 C107.828333,25.8683325 107.676668,25.7266672 107.49,25.62 C107.303332,25.5133328 107.076668,25.46 106.81,25.46 C106.536665,25.46 106.303334,25.5116661 106.11,25.615 C105.916666,25.7183339 105.758334,25.8566658 105.635,26.03 C105.511666,26.2033342 105.421667,26.4033322 105.365,26.63 C105.308333,26.8566678 105.28,27.0933321 105.28,27.34 C105.28,27.5733345 105.303333,27.8066655 105.35,28.04 C105.396667,28.2733345 105.476666,28.484999 105.59,28.675 C105.703334,28.8650009 105.853332,29.0183327 106.04,29.135 C106.226668,29.2516673 106.459999,29.31 106.74,29.31 Z M113.99,26.92 C113.976667,26.719999 113.931667,26.5300009 113.855,26.35 C113.778333,26.1699991 113.675001,26.0150007 113.545,25.885 C113.414999,25.7549993 113.261668,25.6516671 113.085,25.575 C112.908332,25.4983329 112.713334,25.46 112.5,25.46 C112.279999,25.46 112.081668,25.4983329 111.905,25.575 C111.728332,25.6516671 111.576667,25.756666 111.45,25.89 C111.323333,26.023334 111.223334,26.1783324 111.15,26.355 C111.076666,26.5316676 111.033333,26.719999 111.02,26.92 L113.99,26.92 Z M114.81,28.36 C114.696666,28.9400029 114.446669,29.3766652 114.06,29.67 C113.673331,29.9633348 113.18667,30.11 112.6,30.11 C112.186665,30.11 111.828335,30.043334 111.525,29.91 C111.221665,29.776666 110.966668,29.5900012 110.76,29.35 C110.553332,29.1099988 110.398334,28.823335 110.295,28.49 C110.191666,28.156665 110.133333,27.7933353 110.12,27.4 C110.12,27.0066647 110.179999,26.6466683 110.3,26.32 C110.420001,25.9933317 110.588332,25.7100012 110.805,25.47 C111.021668,25.2299988 111.278332,25.043334 111.575,24.91 C111.871668,24.776666 112.196665,24.71 112.55,24.71 C113.010002,24.71 113.391665,24.804999 113.695,24.995 C113.998335,25.1850009 114.241666,25.4266652 114.425,25.72 C114.608334,26.0133348 114.735,26.3333316 114.805,26.68 C114.875,27.0266684 114.903333,27.3566651 114.89,27.67 L111.02,27.67 C111.013333,27.8966678 111.04,28.1116656 111.1,28.315 C111.16,28.5183343 111.256666,28.6983325 111.39,28.855 C111.523334,29.0116675 111.693332,29.1366662 111.9,29.23 C112.106668,29.3233338 112.349999,29.37 112.63,29.37 C112.990002,29.37 113.284999,29.2866675 113.515,29.12 C113.745001,28.9533325 113.896666,28.7000017 113.97,28.36 L114.81,28.36 Z"/>
    <rect width="42" height="56" x="3" y="3" fill="#000000" fill-rule="nonzero"/>
    <g fill="#FFFFFF" fill-rule="nonzero" transform="translate(4.5 51)">
      <polygon points=".776 5.729 .776 .819 7.746 .819 7.746 1.969 3.576 1.969 3.576 2.669 7.106 2.669 7.106 3.815 3.576 3.815 3.576 4.585 7.909 4.585 7.909 5.729"/>
      <path d="M14.9177419 2.24693548C14.8746774 2.08193548 14.7179032 1.97451613 14.5141935 1.91403226 14.3153226 1.85209677 14.066129 1.82306452 13.7908065 1.82306452 13.1758065 1.82306452 12.8985484 1.92903226 12.8985484 2.10709677 12.8985484 2.84016129 17.8141935 2.38532258 17.8141935 4.16790323 17.8141935 5.30548387 16.1632258 5.85903226 13.8145161 5.85903226 11.5582258 5.85903226 10.0872581 5.10370968 10.0282258 4.21774194L12.7103226 4.21774194C12.768871 4.39435484 12.9362903 4.52354839 13.1758065 4.60435484 13.398871 4.68854839 13.6925806 4.72967742 13.9698387 4.72967742 14.6704839 4.72967742 15.135 4.59854839 15.135 4.36725806 15.135 3.62403226 10.2164516 4.13354839 10.2164516 2.26096774 10.2164516 1.21580645 11.7856452.691774194 13.9229032.691774194 16.2953226.691774194 17.3758065 1.38951613 17.58 2.24596774L14.9177419 2.24596774 14.9177419 2.24693548zM22.9248387 4.02080645L22.9248387 5.72983871 20.1232258 5.72983871 20.1232258.819516129 24.1577419.819516129C27.0058065.819516129 27.9445161 1.26709677 27.9445161 2.22080645 27.9445161 2.78741935 27.5066129 3.25967742 26.5112903 3.42177419 27.4117742 3.6133871 27.9595161 3.73241935 27.9595161 4.72145161 27.9595161 5.3616129 27.9193548 5.58080645 28.2537097 5.58080645L28.2537097 5.72983871 25.4143548 5.72983871C25.3437097 5.62096774 25.2745161 5.30596774 25.2745161 4.87145161 25.2745161 4.2283871 25.0829032 4.02080645 23.7779032 4.02080645L22.9248387 4.02080645 22.9248387 4.02080645zM22.9248387 2.94467742L24.0251613 2.94467742C24.8951613 2.94467742 25.3558065 2.81645161 25.3558065 2.47822581 25.3558065 2.13370968 24.8854839 1.96870968 24.2279032 1.96870968L22.9248387 1.96870968 22.9248387 2.94467742zM30.6793548 5.72935484L30.6793548.819032258 34.7622581.819032258C36.6875806.819032258 38.2180645 1.08225806 38.2180645 2.05532258 38.2180645 2.56145161 37.6470968 2.92967742 37.1008065 3.12225806 38.0269355 3.25919355 38.523871 3.71983871 38.523871 4.24822581 38.523871 5.3466129 37.0669355 5.72935484 34.8430645 5.72935484L30.6793548 5.72935484 30.6793548 5.72935484zM33.4790323 3.67919355L33.4790323 4.58451613 34.7008065 4.58451613C35.3922581 4.58451613 35.9119355 4.50032258 35.9119355 4.13403226 35.9119355 3.70580645 35.2625806 3.67967742 34.3683871 3.67967742L33.4790323 3.67967742 33.4790323 3.67919355zM33.4790323 1.96870968L33.4790323 2.78741935 34.6451613 2.78741935C35.201129 2.78741935 35.6075806 2.64129032 35.6075806 2.35725806 35.6075806 1.97451613 35.0564516 1.96870968 34.4666129 1.96870968L33.4790323 1.96870968 33.4790323 1.96870968z"/>
    </g>
    <g fill-rule="nonzero" transform="translate(5 12)">
      <rect width="38" height="38" fill="#FFFFFF"/>
      <path fill="#000000" d="M0.960645161,4.02322581 C0.960645161,2.93983871 1.92064516,2.05967742 3.12209677,2.05967742 C4.31145161,2.05967742 5.26758065,2.93983871 5.26758065,4.02322581 C5.26758065,5.11532258 4.31145161,5.99548387 3.12209677,5.99548387 C1.92064516,5.99596774 0.960645161,5.11580645 0.960645161,4.02322581 L0.960645161,4.02322581 Z M4.88822581,4.02322581 C4.88822581,3.13290323 4.10145161,2.40709677 3.12209677,2.40709677 C2.1383871,2.40709677 1.34096774,3.13290323 1.34096774,4.02322581 C1.34096774,4.91983871 2.13790323,5.65096774 3.12209677,5.65096774 C4.10145161,5.65145161 4.88822581,4.91983871 4.88822581,4.02322581 L4.88822581,4.02322581 Z M2.66290323,4.15919355 L2.66290323,5.15548387 L2.2666129,5.15548387 L2.2666129,2.83435484 L3.08774194,2.83435484 C3.55322581,2.83435484 4.02548387,2.95193548 4.02548387,3.47596774 C4.02548387,3.74064516 3.85467742,3.95548387 3.51741935,4.02032258 L3.51741935,4.02903226 C3.86096774,4.09096774 3.90596774,4.23516129 3.94467742,4.48532258 C3.98290323,4.70354839 4.00854839,4.94451613 4.09419355,5.155 L3.58951613,5.155 C3.56048387,5.02387097 3.52032258,4.87387097 3.50483871,4.7383871 C3.47967742,4.54096774 3.47967742,4.35274194 3.36354839,4.24677419 C3.26435484,4.15870968 3.13177419,4.16741935 2.99387097,4.15870968 L2.66290323,4.15870968 L2.66290323,4.15919355 Z M3.08290323,3.79387097 C3.45112903,3.78516129 3.5416129,3.63516129 3.5416129,3.46435484 C3.5416129,3.29209677 3.45064516,3.19967742 3.13612903,3.19967742 L2.66241935,3.19967742 L2.66241935,3.79435484 L3.08290323,3.79435484 L3.08290323,3.79387097 Z"/>
      <polygon fill="#000000" points="1.698 9.115 30.742 1.892 32.974 9.61 23.645 11.93 29.902 33.618 19.518 36.205 13.255 14.514 3.927 16.836"/>
    </g>
    <g fill="#FFFFFF" fill-rule="nonzero" transform="translate(5 4)">
      <polygon points="29.796 .655 32.437 .655 35.504 3.926 35.396 2.559 35.396 .655 38.095 .655 38.095 6.645 35.458 6.645 32.387 3.384 32.495 4.747 32.495 6.645 29.796 6.645"/>
      <polygon points="20.281 .655 27.284 .655 27.284 2.05 23.095 2.05 23.095 2.911 26.641 2.911 26.641 4.309 23.095 4.309 23.095 5.247 27.453 5.247 27.453 6.645 20.281 6.645"/>
      <polygon points="10.438 .655 17.44 .655 17.44 2.05 13.254 2.05 13.254 2.911 16.796 2.911 16.796 4.309 13.254 4.309 13.254 5.247 17.612 5.247 17.612 6.645 10.438 6.645"/>
      <polygon points=".169 .655 8.044 .655 8.044 2.228 5.517 2.228 5.517 6.645 2.698 6.645 2.698 2.228 .169 2.228"/>
    </g>
  </g>
</svg>
